<svg width="975" height="975" viewBox="0 0 975 975" fill="none" xmlns="http://www.w3.org/2000/svg">
<rect width="975" height="975" fill="black"/>
<path d="M164.261 275.412C173.922 265.751 173.922 250.088 164.261 240.426C154.6 230.765 138.936 230.765 129.275 240.426L47.791 321.911C44.5245 324.605 41.5286 327.616 38.85 330.896C37.9278 331.916 37.1057 332.994 36.3836 334.118C28.8247 344.663 24.375 357.587 24.375 371.551V682.613C24.375 718.136 53.1725 746.934 88.696 746.934H639.631C660.157 746.934 678.436 737.32 690.213 722.35L766.149 647.055C775.851 637.434 775.917 621.771 766.297 612.069C756.677 602.367 741.013 602.301 731.311 611.921L703.952 639.049H129.275L132.443 307.23L164.261 275.412Z" fill="white"/>
<path d="M950.625 301.959C950.625 292.562 945.964 283.777 938.182 278.509C930.401 273.24 920.513 272.175 911.788 275.665L759.864 336.434C745.342 342.243 738.279 358.724 744.088 373.246C749.896 387.768 766.378 394.832 780.9 389.023L893.986 343.788V563.977L780.9 518.743C766.378 512.934 749.896 519.997 744.088 534.519C738.279 549.041 745.342 565.522 759.864 571.331L911.788 632.1C920.513 635.59 930.401 634.525 938.182 629.257C945.964 623.988 950.625 615.203 950.625 605.806V301.959Z" fill="white"/>
<path fill-rule="evenodd" clip-rule="evenodd" d="M718.795 277.544H167.86C159.662 277.544 153.017 284.189 153.017 292.387V603.449C153.017 611.646 159.662 618.292 167.86 618.292H718.795C726.993 618.292 733.639 611.646 733.639 603.449V292.387C733.639 284.189 726.993 277.544 718.795 277.544ZM167.86 228.066C132.337 228.066 103.539 256.864 103.539 292.387V603.449C103.539 638.972 132.337 667.77 167.86 667.77H718.795C754.319 667.77 783.116 638.972 783.116 603.449V292.387C783.116 256.864 754.319 228.066 718.795 228.066H167.86Z" fill="white"/>
<path fill-rule="evenodd" clip-rule="evenodd" d="M506.356 372.844C511.843 362.173 507.64 349.074 496.969 343.587C486.298 338.1 473.199 342.303 467.712 352.975L380.296 522.992C374.81 533.663 379.012 546.762 389.684 552.249C400.355 557.735 413.454 553.533 418.94 542.861L506.356 372.844ZM333.889 546.658C326.302 555.954 312.615 557.34 303.319 549.753L215.662 478.213C196.489 462.564 196.488 433.265 215.662 417.617L303.319 346.077C312.615 338.49 326.302 339.875 333.889 349.171C341.476 358.467 340.09 372.154 330.794 379.741L247.262 447.915L330.794 516.089C340.09 523.676 341.476 537.362 333.889 546.658ZM552.762 349.177C560.349 339.881 574.036 338.495 583.332 346.081L670.992 417.622C690.167 433.27 690.167 462.57 670.992 478.218L583.332 549.758C574.036 557.345 560.349 555.959 552.762 546.663C545.176 537.367 546.562 523.68 555.858 516.094L639.393 447.92L555.858 379.746C546.562 372.16 545.176 358.473 552.762 349.177Z" fill="white"/>
</svg>
