<svg width="1000" height="1000" viewBox="0 0 1000 1000" fill="none" xmlns="http://www.w3.org/2000/svg">
<rect width="1000" height="1000" rx="56" fill="black"/>
<path d="M259.974 342.911C267.148 335.737 267.148 324.106 259.974 316.932C252.8 309.758 241.169 309.758 233.995 316.932L173.488 377.439C171.062 379.44 168.838 381.676 166.849 384.112C166.164 384.869 165.553 385.67 165.017 386.504C159.404 394.334 156.1 403.932 156.1 414.301V645.284C156.1 671.662 177.484 693.046 203.862 693.046H612.967C628.209 693.046 641.782 685.908 650.527 674.791L706.915 618.879C714.119 611.736 714.168 600.105 707.024 592.9C699.881 585.696 688.25 585.647 681.045 592.79L660.73 612.935H233.995L236.348 366.538L259.974 342.911Z" fill="white"/>
<path d="M843.9 362.624C843.9 355.646 840.439 349.123 834.66 345.211C828.882 341.298 821.54 340.507 815.061 343.099L702.248 388.224C691.464 392.538 686.219 404.776 690.533 415.559C694.846 426.343 707.084 431.588 717.868 427.274L801.842 393.685V557.189L717.868 523.6C707.084 519.286 694.846 524.531 690.533 535.315C686.219 546.098 691.464 558.337 702.248 562.65L815.061 607.775C821.54 610.367 828.882 609.576 834.66 605.664C840.439 601.751 843.9 595.228 843.9 588.25V362.624Z" fill="white"/>
<path fill-rule="evenodd" clip-rule="evenodd" d="M671.752 344.494H262.647C256.56 344.494 251.625 349.429 251.625 355.516V586.499C251.625 592.587 256.56 597.521 262.647 597.521H671.752C677.839 597.521 682.774 592.587 682.774 586.499V355.516C682.774 349.429 677.839 344.494 671.752 344.494ZM262.647 307.754C236.268 307.754 214.885 329.138 214.885 355.516V586.499C214.885 612.878 236.268 634.262 262.647 634.262H671.752C698.13 634.262 719.514 612.878 719.514 586.499V355.516C719.514 329.138 698.13 307.754 671.752 307.754H262.647Z" fill="white"/>
<path fill-rule="evenodd" clip-rule="evenodd" d="M514.002 415.26C518.076 407.336 514.955 397.61 507.031 393.536C499.107 389.461 489.38 392.582 485.306 400.506L420.394 526.755C416.32 534.679 419.441 544.406 427.365 548.48C435.289 552.554 445.016 549.433 449.09 541.509L514.002 415.26ZM385.934 544.329C380.3 551.232 370.137 552.261 363.234 546.627L298.143 493.503C283.905 481.884 283.905 460.127 298.143 448.507L363.234 395.384C370.137 389.75 380.3 390.779 385.934 397.682C391.568 404.585 390.539 414.748 383.636 420.382L321.608 471.005L383.636 521.629C390.539 527.263 391.568 537.426 385.934 544.329ZM548.462 397.686C554.095 390.783 564.258 389.754 571.161 395.388L636.255 448.511C650.493 460.131 650.493 481.888 636.255 493.508L571.161 546.631C564.258 552.264 554.095 551.235 548.462 544.332C542.828 537.429 543.857 527.266 550.76 521.633L612.79 471.009L550.76 420.386C543.857 414.752 542.828 404.589 548.462 397.686Z" fill="white"/>
</svg>
